<?xml version="1.0" encoding="utf-8"?>
<svg xmlns="http://www.w3.org/2000/svg" viewBox="25.3242 115.505 803.2214 589.6154" width="188.06733324208065px"    width="200"
   height="200">
  <defs>
    <linearGradient gradientUnits="userSpaceOnUse" x1="426.935" y1="115.505" x2="426.935" y2="705.12" id="gradient-0">
      <stop offset="0" style="stop-color: rgb(203, 78, 203);"/>
      <stop offset="1" style="stop-color: rgb(0, 104, 144);"/>
    </linearGradient>
  </defs>
  <path d="M 765.263 274.956 C 747.755 323.061 693.292 282.598 665.897 352.615 C 713.537 334.219 767.871 314.393 766.687 319.503 C 770.388 384.927 639.845 421.492 625.103 523.569 C 619.138 564.874 659.215 603.418 693.088 604.797 C 819.863 619.256 845.468 455.054 752.285 456.121 C 721.709 452.649 664.825 481.071 720.411 513.93 L 765.05 493.561 L 758.608 533.757 C 717.969 550.828 728.357 556.757 713.87 567.828 C 624.579 610.465 631.563 552.796 576.435 528.817 C 632.805 687.604 319.668 591.527 217.256 674.073 C 285.43 613.074 498.434 607.703 533.697 588.719 C 583.635 561.835 499.859 473.37 551.301 468.611 C 559.533 467.849 651.975 590.981 694.161 538.623 C 646.971 518.666 683.464 442.436 730.994 421.894 C 756.893 410.482 818.467 393.26 776.798 355.893 C 824.268 361.269 815.704 427.812 781.211 431.821 C 860.287 475.471 841.371 627.539 716.287 633 C 634.764 636.559 495.631 525.682 737.659 349.624 C 699.105 379.323 671.847 383.071 638.404 398.47 C 630.232 356.476 680.118 298.557 706.918 281.258 C 693.702 293.746 674.703 258.952 687.5 239.4 C 702.64 246.307 764.152 246.973 774.485 218.475 L 765.263 274.956 Z M 359.977 115.505 C 538.233 235.085 576.301 546.092 244.004 604.112 C 505.399 535.353 497.396 249.302 378.026 173.436 C 343.159 198.557 375.145 321.013 385.641 350.704 C 351.89 302.049 304.317 148.132 359.977 115.505 Z M 415.627 327.08 C 437.16 465.277 399.966 399.863 379.399 415.386 C 380.39 596.085 177.015 609.543 213.315 600.015 C 410.468 538.097 314.346 352.618 383.137 386.96 C 415.014 410.145 386.372 348.501 415.627 327.08 L 415.627 327.08 Z M 186.271 606.336 C 478.622 406.432 110.689 -17.2403 277.128 451.817 C 241.496 423.601 180.122 186.889 244.496 193.482 C 345.721 193.572 389.212 531.787 186.271 606.336 Z M 142.191 468.107 C 40.3341 369.598 247.106 337.15 152.551 474.783 C 83.6865 531.712 90.7412 475.613 58.9877 523.101 C 58.7943 536.621 121.193 490.218 121.396 541.844 C -206.033 816.552 664.006 623.035 799.054 636.009 C 666.774 631.268 -187.517 839.489 75.2022 555.163 C 48.9155 556.773 35.7854 543.018 38.7057 525.016 C 42.5141 506.135 65.2219 493.399 66.7588 488.664 C 72.5708 470.696 75.2665 439.117 96.2085 442.237 C 73.2478 501.984 123.16 481.643 144.14 455.782 C 180.683 369.282 106.967 407.94 147.716 445.347 C 258.917 373.345 148.066 278.257 123.58 382.352 C 76.2955 212.759 361.17 347.723 142.191 468.107 L 142.191 468.107 Z M 496.088 532.938 C 519.95 561.619 464.194 579.307 445.368 587.887 C 513.298 538.173 466.716 556.42 452.852 535.806 C 444.294 511.746 476.998 499.324 488.282 494.6 C 499.474 502.733 440.761 526.123 496.088 532.938 Z M 220.227 524.687 C 178.119 537.005 177.511 588.559 138.47 554.089 C 181.981 539.993 170.254 497.284 220.227 524.687 Z M 404.303 439.722 C 407.429 441.284 412.796 451.209 415.813 453.323 L 406.857 468.508 C 389.826 461.293 391.292 454.163 404.303 439.722 L 404.303 439.722 Z" id="path2" style="fill: url(&quot;#gradient-0&quot;);"/>
</svg>