<?xml version="1.0" encoding="UTF-8" standalone="no"?>
<svg
   fill="black"
   x="0px"
   y="0px"
   viewBox="0 0 854.18492 854.18494"
   width="200"
   height="200"
   version="1.1"
   id="svg18"
   sodipodi:docname="logo.svg"
   inkscape:version="1.1.1 (3bf5ae0d25, 2021-09-20)"
   xmlns:inkscape="http://www.inkscape.org/namespaces/inkscape"
   xmlns:sodipodi="http://sodipodi.sourceforge.net/DTD/sodipodi-0.dtd"
   xmlns="http://www.w3.org/2000/svg"
   xmlns:svg="http://www.w3.org/2000/svg">
  <defs
     id="defs22" />
  <sodipodi:namedview
     id="namedview20"
     pagecolor="#ffffff"
     bordercolor="#666666"
     borderopacity="1.0"
     inkscape:pageshadow="2"
     inkscape:pageopacity="0.0"
     inkscape:pagecheckerboard="0"
     showgrid="false"
     inkscape:zoom="4.21"
     inkscape:cx="99.881235"
     inkscape:cy="47.268409"
     inkscape:window-width="1920"
     inkscape:window-height="1046"
     inkscape:window-x="-11"
     inkscape:window-y="-11"
     inkscape:window-maximized="1"
     inkscape:current-layer="svg18" />
  <path
     d="m 765.26309,274.95591 c -17.50829,48.10477 -71.97147,7.64194 -99.3659,77.65927 47.63979,-18.39612 56.44364,-19.41599 96.83042,-36.08118 -4.21658,126.79074 -158.17219,112.85737 -143.56326,214.95357 6.90165,48.23304 40.05046,71.93091 73.92341,73.30936 126.77546,14.45918 152.38057,-149.74326 59.19742,-148.67595 -30.57585,-3.47167 -87.46034,24.95044 -31.87365,57.80928 l 44.63825,-20.36899 -6.44161,40.1962 c -40.63881,17.07103 -30.25156,22.9995 -44.73766,34.07056 -89.29099,42.6375 -82.30755,-15.03242 -137.43525,-39.01126 56.37015,158.78734 -256.76766,62.71016 -359.17936,145.25589 68.17405,-60.99885 227.69598,-42.79764 316.44131,-98.2201 36.8744,-23.02848 1.79339,-115.34951 17.60381,-107.24134 7.35637,3.7726 100.67436,122.36996 142.85978,70.01239 -47.18953,-19.95774 -10.69706,-96.18755 36.83306,-116.7295 25.89886,-11.41219 87.4735,-28.63435 45.80446,-66.00106 47.4698,5.37594 38.90604,71.91923 4.41277,75.9284 79.07586,43.64927 60.16011,195.71751 -64.92444,201.17847 -81.52314,3.55914 -220.65586,-107.31827 21.37206,-283.37617 -38.55373,29.6993 -65.81184,33.44746 -99.25429,48.84628 -8.17271,-41.99344 41.71391,-99.91271 68.51364,-117.21157 -13.21621,12.48772 -32.21464,-22.30672 -19.41764,-41.85781 15.13992,6.90681 76.65153,7.57232 86.98451,-20.92583 z"
     id="path2" />
  <path
     d="M 359.97659,115.50523 C 538.23292,235.08525 576.3013,546.09199 244.00418,604.11193 505.39862,535.35308 497.39619,249.3016 378.02598,173.43567 343.15915,198.55661 375.14467,321.0126 385.64085,350.70445 351.88987,302.04912 304.31675,148.1323 359.97659,115.50523 Z"
     id="path4" />
  <path
     d="m 415.62684,327.07996 c 21.53319,138.19739 -15.6608,72.78269 -36.22825,88.30644 0.99127,180.69844 -202.38333,194.15659 -166.08406,184.62852 197.15366,-61.91806 101.03128,-247.39725 169.82285,-213.05516 31.87623,23.1849 3.23428,-38.45837 32.48955,-59.87967 z"
     id="path6" />
  <path
     d="M 186.27142,606.33609 C 478.62201,406.43223 110.68898,-17.24026 277.12772,451.81735 241.4958,423.60109 180.12194,186.88885 244.49641,193.48246 c 101.22469,0.0899 144.71526,338.30461 -58.22499,412.85363 z"
     id="path8"
     style="stroke-width:1.03211" />
  <path
     d="m 142.19118,468.10727 c -101.857119,-98.50899 104.91483,-130.95756 10.35972,6.67567 -68.864446,56.9286 -61.809669,0.8296 -93.563179,48.31832 -0.193379,13.51991 62.204959,-32.88352 62.408509,18.74239 -327.42966,274.70784 542.60978,81.19115 677.65814,94.1657 -132.28062,-4.74148 -986.57138,203.47947 -723.852189,-80.84589 -26.28671,1.60913 -39.41684,-12.1455 -36.49649,-30.14729 3.80834,-18.88129 26.51616,-31.61684 28.05308,-36.35181 5.81198,-17.96858 8.50765,-49.54774 29.44968,-46.42739 -22.960676,59.74742 26.951249,39.40596 47.931669,13.54452 36.54295,-86.49925 -37.17324,-47.84152 3.57609,-10.43456 111.20057,-72.00155 0.34968,-167.08989 -24.13584,-62.99471 -47.284889,-169.5931 237.58941,-34.62942 18.61081,85.75505 z"
     id="path10" />
  <path
     d="m 496.08809,532.93838 c 23.86141,28.68064 -31.89398,46.36865 -50.72039,54.94819 v 0 c 67.93012,-49.71372 21.34811,-31.46649 7.48459,-52.08078 -8.55877,-24.06011 24.14602,-36.48145 35.43011,-41.20575 11.19132,8.13338 -47.52109,31.5226 7.80569,38.33834 z"
     id="path12" />
  <path
     d="m 220.22697,524.68653 c -42.10839,12.31819 -42.71554,63.87208 -81.75676,29.40242 43.51054,-14.09543 31.78357,-56.80457 81.75676,-29.40242 z"
     id="path14" />
  <path
     d="m 404.30279,439.72172 c 3.12575,1.56223 8.49312,11.48746 11.51,13.60105 l -8.95617,15.18568 c -17.03088,-7.21528 -15.56465,-14.34564 -2.55378,-28.78673 z"
     id="path16" />
</svg>
