<?xml version="1.0" encoding="UTF-8" standalone="no"?>
<svg
   version="1.1"
   id="Layer_1"
   inkscape:version="1.1.1 (3bf5ae0d25, 2021-09-20)"
   sodipodi:docname="logo.svg"
   x="0px"
   y="0px"
   viewBox="0 0 854.18492 854.18494"
   xml:space="preserve"
   width="854.18494"
   height="854.18494"
   xmlns:inkscape="http://www.inkscape.org/namespaces/inkscape"
   xmlns:sodipodi="http://sodipodi.sourceforge.net/DTD/sodipodi-0.dtd"
   xmlns="http://www.w3.org/2000/svg"
   xmlns:svg="http://www.w3.org/2000/svg"
   xmlns:rdf="http://www.w3.org/1999/02/22-rdf-syntax-ns#"
   xmlns:cc="http://creativecommons.org/ns#"
   xmlns:dc="http://purl.org/dc/elements/1.1/"><metadata
   id="metadata73"><rdf:RDF><cc:Work
       rdf:about=""><dc:format>image/svg+xml</dc:format><dc:type
         rdf:resource="http://purl.org/dc/dcmitype/StillImage" /><dc:title /></cc:Work></rdf:RDF></metadata><defs
   id="defs71" />
<style
   type="text/css"
   id="style2">
	.st0{fill:#FFFFFF;stroke:#000000;stroke-miterlimit:10;}
	.st1{fill:none;stroke:url(#SVGID_1_);stroke-miterlimit:10;}
	.st2{fill:none;stroke:url(#SVGID_2_);stroke-miterlimit:10;}
	.st3{fill:none;stroke:url(#SVGID_3_);stroke-miterlimit:10;}
	.st4{fill:none;stroke:url(#SVGID_4_);stroke-miterlimit:10;}
	.st5{fill:none;stroke:url(#SVGID_5_);stroke-miterlimit:10;}
	.st6{fill:none;stroke:url(#SVGID_6_);stroke-miterlimit:10;}
	.st7{fill:none;stroke:url(#SVGID_7_);stroke-miterlimit:10;}
	.st8{fill:none;stroke:url(#SVGID_8_);stroke-miterlimit:10;}
	.st9{fill:none;stroke:url(#SVGID_9_);stroke-miterlimit:10;}
</style>
<sodipodi:namedview
   bordercolor="#666666"
   borderopacity="1"
   gridtolerance="10"
   guidetolerance="10"
   id="namedview30"
   inkscape:current-layer="Layer_1"
   inkscape:cx="464.65753"
   inkscape:cy="372.46848"
   inkscape:pageopacity="0"
   inkscape:pageshadow="2"
   inkscape:window-height="1046"
   inkscape:window-maximized="1"
   inkscape:window-width="1920"
   inkscape:window-x="-11"
   inkscape:window-y="-11"
   inkscape:zoom="5.6568545"
   objecttolerance="10"
   pagecolor="#ffffff"
   showgrid="false"
   inkscape:pagecheckerboard="0"
   inkscape:snap-global="true"
   inkscape:snap-grids="true"
   inkscape:snap-to-guides="false"
   inkscape:snap-text-baseline="true"
   inkscape:snap-others="false">
	</sodipodi:namedview>

<linearGradient
   id="SVGID_1_"
   gradientUnits="userSpaceOnUse"
   x1="28.049601"
   y1="23.5833"
   x2="46.600899"
   y2="23.5833">
	<stop
   offset="2.131116e-07"
   style="stop-color:#C60E0E"
   id="stop7" />
	<stop
   offset="1"
   style="stop-color:#00087F"
   id="stop9" />
</linearGradient>

<linearGradient
   id="SVGID_2_"
   gradientUnits="userSpaceOnUse"
   x1="25.855301"
   y1="19.725901"
   x2="33.980202"
   y2="19.725901">
	<stop
   offset="2.131116e-07"
   style="stop-color:#C60E0E"
   id="stop14" />
	<stop
   offset="1"
   style="stop-color:#00087F"
   id="stop16" />
</linearGradient>

<linearGradient
   id="SVGID_3_"
   gradientUnits="userSpaceOnUse"
   x1="34.169498"
   y1="23.371799"
   x2="39.3652"
   y2="23.371799">
	<stop
   offset="2.131116e-07"
   style="stop-color:#C60E0E"
   id="stop21" />
	<stop
   offset="1"
   style="stop-color:#00087F"
   id="stop23" />
</linearGradient>

<linearGradient
   id="SVGID_4_"
   gradientUnits="userSpaceOnUse"
   x1="14.7394"
   y1="25.730301"
   x2="29.229601"
   y2="25.730301">
	<stop
   offset="2.131116e-07"
   style="stop-color:#C60E0E"
   id="stop28" />
	<stop
   offset="1"
   style="stop-color:#00087F"
   id="stop30" />
</linearGradient>

<linearGradient
   id="SVGID_5_"
   gradientUnits="userSpaceOnUse"
   x1="26.74"
   y1="24.6775"
   x2="28.153109"
   y2="24.83218">
	<stop
   offset="2.131116e-07"
   style="stop-color:#C60E0E"
   id="stop35" />
	<stop
   offset="1"
   style="stop-color:#00087F"
   id="stop37" />
</linearGradient>

<linearGradient
   id="SVGID_6_"
   gradientUnits="userSpaceOnUse"
   x1="14.2845"
   y1="17.227699"
   x2="20.831301"
   y2="17.227699">
	<stop
   offset="2.131116e-07"
   style="stop-color:#C60E0E"
   id="stop42" />
	<stop
   offset="1"
   style="stop-color:#00087F"
   id="stop44" />
</linearGradient>

<linearGradient
   id="SVGID_7_"
   gradientUnits="userSpaceOnUse"
   x1="5.7131"
   y1="30.0583"
   x2="35.3643"
   y2="30.0583">
	<stop
   offset="2.131116e-07"
   style="stop-color:#C60E0E"
   id="stop49" />
	<stop
   offset="1"
   style="stop-color:#00087F"
   id="stop51" />
</linearGradient>

<linearGradient
   id="SVGID_8_"
   gradientUnits="userSpaceOnUse"
   x1="9.0630999"
   y1="30.6817"
   x2="10.2077"
   y2="30.6817">
	<stop
   offset="2.131116e-07"
   style="stop-color:#C60E0E"
   id="stop56" />
	<stop
   offset="1"
   style="stop-color:#00087F"
   id="stop58" />
</linearGradient>

<linearGradient
   id="SVGID_9_"
   gradientUnits="userSpaceOnUse"
   x1="10.3292"
   y1="30.4561"
   x2="11.4353"
   y2="30.4561">
	<stop
   offset="2.131116e-07"
   style="stop-color:#C60E0E"
   id="stop63" />
	<stop
   offset="1"
   style="stop-color:#00087F"
   id="stop65" />
</linearGradient>

<path
   style="fill:#000000;fill-opacity:1;stroke:none;stroke-width:11.06564999;stroke-miterlimit:4;stroke-dasharray:none;stroke-opacity:1"
   id="path965-4"
   d="m 765.26309,274.95591 c -17.50829,48.10477 -71.97147,7.64194 -99.3659,77.65927 47.63979,-18.39612 56.44364,-19.41599 96.83042,-36.08118 -4.21658,126.79074 -158.17219,112.85737 -143.56326,214.95357 6.90165,48.23304 40.05046,71.93091 73.92341,73.30936 126.77546,14.45918 152.38057,-149.74326 59.19742,-148.67595 -30.57585,-3.47167 -87.46034,24.95044 -31.87365,57.80928 l 44.63825,-20.36899 -6.44161,40.1962 c -40.63881,17.07103 -30.25156,22.9995 -44.73766,34.07056 -89.29099,42.6375 -82.30755,-15.03242 -137.43525,-39.01126 56.37015,158.78734 -256.76766,62.71016 -359.17936,145.25589 68.17405,-60.99885 227.69598,-42.79764 316.44131,-98.2201 36.8744,-23.02848 1.79339,-115.34951 17.60381,-107.24134 7.35637,3.7726 100.67436,122.36996 142.85978,70.01239 -47.18953,-19.95774 -10.69706,-96.18755 36.83306,-116.7295 25.89886,-11.41219 87.4735,-28.63435 45.80446,-66.00106 47.4698,5.37594 38.90604,71.91923 4.41277,75.9284 79.07586,43.64927 60.16011,195.71751 -64.92444,201.17847 -81.52314,3.55914 -220.65586,-107.31827 21.37206,-283.37617 -38.55373,29.6993 -65.81184,33.44746 -99.25429,48.84628 -8.17271,-41.99344 41.71391,-99.91271 68.51364,-117.21157 -13.21621,12.48772 -32.21464,-22.30672 -19.41764,-41.85781 15.13992,6.90681 76.65153,7.57232 86.98451,-20.92583 z"
   inkscape:connector-curvature="0"
   sodipodi:nodetypes="cccsccccccccssccccscccccc" /><path
   style="fill:#000000;fill-opacity:1;stroke:none;stroke-width:11.06564999;stroke-miterlimit:4;stroke-dasharray:none;stroke-opacity:1"
   id="path967-3"
   d="M 359.97659,115.50523 C 538.23292,235.08525 576.3013,546.09199 244.00418,604.11193 505.39862,535.35308 497.39619,249.3016 378.02598,173.43567 343.15915,198.55661 375.14467,321.0126 385.64085,350.70445 351.88987,302.04912 304.31675,148.1323 359.97659,115.50523 Z"
   inkscape:connector-curvature="0"
   sodipodi:nodetypes="ccccc" /><path
   style="fill:#000000;fill-opacity:1;stroke:none;stroke-width:11.0656;stroke-miterlimit:4;stroke-dasharray:none;stroke-opacity:1"
   id="path971-9"
   d="m 415.62684,327.07996 c 21.53319,138.19739 -15.6608,72.78269 -36.22825,88.30644 0.99127,180.69844 -202.38333,194.15659 -166.08406,184.62852 197.15366,-61.91806 101.03128,-247.39725 169.82285,-213.05516 31.87623,23.1849 3.23428,-38.45837 32.48955,-59.87967 z"
   inkscape:connector-curvature="0"
   sodipodi:nodetypes="cccccc" /><path
   style="fill:#000000;fill-opacity:1;stroke:none;stroke-width:11.06564999;stroke-miterlimit:4;stroke-dasharray:none;stroke-opacity:1"
   id="path973-3"
   d="M 193.37272,601.26373 C 471.22983,403.81511 121.53733,-14.653809 279.72476,448.6428 245.85931,420.7731 187.5281,186.96817 248.71117,193.4808 c 96.2064,0.0888 137.5409,334.14953 -55.33845,407.78293 z"
   inkscape:connector-curvature="0"
   sodipodi:nodetypes="cccc" /><path
   style="fill:#000000;fill-opacity:1;stroke:none;stroke-width:11.0656;stroke-miterlimit:4;stroke-dasharray:none;stroke-opacity:1"
   id="path975-3"
   d="m 142.19118,468.10727 c -101.857119,-98.50899 104.91483,-130.95756 10.35972,6.67567 -68.864446,56.9286 -61.809669,0.8296 -93.563179,48.31832 -0.193379,13.51991 62.204959,-32.88352 62.408509,18.74239 -327.42966,274.70784 542.60978,81.19115 677.65814,94.1657 -132.28062,-4.74148 -986.57138,203.47947 -723.852189,-80.84589 -26.28671,1.60913 -39.41684,-12.1455 -36.49649,-30.14729 3.80834,-18.88129 26.51616,-31.61684 28.05308,-36.35181 5.81198,-17.96858 8.50765,-49.54774 29.44968,-46.42739 -22.960676,59.74742 26.951249,39.40596 47.931669,13.54452 36.54295,-86.49925 -37.17324,-47.84152 3.57609,-10.43456 111.20057,-72.00155 0.34968,-167.08989 -24.13584,-62.99471 -47.284889,-169.5931 237.58941,-34.62942 18.61081,85.75505 z"
   inkscape:connector-curvature="0"
   sodipodi:nodetypes="ccccccccccccc" /><path
   style="fill:#000000;fill-opacity:1;stroke:none;stroke-width:11.06564999;stroke-miterlimit:4;stroke-dasharray:none;stroke-opacity:1"
   id="path969-6"
   d="m 496.08809,532.93838 c 23.86141,28.68064 -31.89398,46.36865 -50.72039,54.94819 v 0 c 67.93012,-49.71372 21.34811,-31.46649 7.48459,-52.08078 -8.55877,-24.06011 24.14602,-36.48145 35.43011,-41.20575 11.19132,8.13338 -47.52109,31.5226 7.80569,38.33834 z"
   inkscape:connector-curvature="0"
   sodipodi:nodetypes="cccccc" /><path
   style="fill:#000000;fill-opacity:1;stroke:none;stroke-width:9.57102966;stroke-miterlimit:4;stroke-dasharray:none;stroke-opacity:1"
   id="path979-5"
   d="m 220.22697,524.68653 c -42.10839,12.31819 -42.71554,63.87208 -81.75676,29.40242 43.51054,-14.09543 31.78357,-56.80457 81.75676,-29.40242 z"
   inkscape:connector-curvature="0"
   sodipodi:nodetypes="ccc" /><path
   style="fill:#000000;fill-opacity:1;stroke:none;stroke-width:9.57102966;stroke-miterlimit:4;stroke-dasharray:none;stroke-opacity:1"
   id="path979-6-1"
   d="m 404.30279,439.72172 c 3.12575,1.56223 8.49312,11.48746 11.51,13.60105 l -8.95617,15.18568 c -17.03088,-7.21528 -15.56465,-14.34564 -2.55378,-28.78673 z"
   inkscape:connector-curvature="0"
   sodipodi:nodetypes="ccccc" /></svg>
